<svg width="20" height="21" viewBox="0 0 20 21" fill="none" xmlns="http://www.w3.org/2000/svg">
<g clip-path="url(#clip0_1_4837)">
<path d="M10 1.86523C11.3411 1.86523 12.2168 1.86849 12.627 1.875C13.0371 1.88151 13.5091 1.89779 14.043 1.92383C14.5247 1.94987 14.9089 1.9987 15.1953 2.07031C15.4818 2.14193 15.7161 2.21029 15.8984 2.27539C16.1328 2.36654 16.3379 2.4707 16.5137 2.58789C16.6895 2.70508 16.8685 2.84831 17.0508 3.01758C17.2201 3.18685 17.3633 3.36263 17.4805 3.54492C17.5977 3.72721 17.7018 3.93555 17.793 4.16992C17.8581 4.33919 17.9264 4.56706 17.998 4.85352C18.0697 5.13997 18.1185 5.5306 18.1445 6.02539C18.1576 6.54622 18.1706 7.01497 18.1836 7.43164C18.1966 7.84831 18.2031 8.72721 18.2031 10.0684C18.2031 11.3965 18.1966 12.2689 18.1836 12.6855C18.1706 13.1022 18.1576 13.571 18.1445 14.0918C18.1185 14.5866 18.0697 14.9772 17.998 15.2637C17.9264 15.5501 17.8581 15.778 17.793 15.9473C17.7018 16.1816 17.5977 16.39 17.4805 16.5723C17.3633 16.7546 17.2201 16.9303 17.0508 17.0996C16.8685 17.2819 16.6895 17.4316 16.5137 17.5488C16.3379 17.666 16.1328 17.7702 15.8984 17.8613C15.7161 17.9264 15.4818 17.9948 15.1953 18.0664C14.9089 18.138 14.5247 18.1803 14.043 18.1934C13.5091 18.2194 13.0371 18.2357 12.627 18.2422C12.2168 18.2487 11.3411 18.252 10 18.252C8.67188 18.252 7.79948 18.2487 7.38281 18.2422C6.96615 18.2357 6.49089 18.2194 5.95703 18.1934C5.47526 18.1803 5.09115 18.138 4.80469 18.0664C4.51823 17.9948 4.28385 17.9264 4.10156 17.8613C3.88021 17.7702 3.67839 17.666 3.49609 17.5488C3.3138 17.4316 3.13802 17.2819 2.96875 17.0996C2.78646 16.9303 2.63672 16.7546 2.51953 16.5723C2.40234 16.39 2.29818 16.1882 2.20703 15.9668C2.14193 15.7845 2.07357 15.5501 2.00195 15.2637C1.93034 14.9772 1.88802 14.5931 1.875 14.1113C1.84896 13.5775 1.83268 13.1022 1.82617 12.6855C1.81966 12.2689 1.81641 11.3965 1.81641 10.0684C1.81641 8.72721 1.81966 7.84831 1.82617 7.43164C1.83268 7.01497 1.84896 6.54622 1.875 6.02539C1.88802 5.54362 1.93034 5.1595 2.00195 4.87305C2.07357 4.58659 2.14193 4.35221 2.20703 4.16992C2.29818 3.93555 2.40234 3.73047 2.51953 3.55469C2.63672 3.37891 2.77995 3.19987 2.94922 3.01758C3.13151 2.84831 3.31055 2.70508 3.48633 2.58789C3.66211 2.4707 3.86719 2.36654 4.10156 2.27539C4.28385 2.21029 4.51823 2.14193 4.80469 2.07031C5.09115 1.9987 5.47526 1.94987 5.95703 1.92383C6.49089 1.89779 6.96289 1.88151 7.37305 1.875C7.7832 1.86849 8.65885 1.86523 10 1.86523ZM10 0.0683594C8.64583 0.0683594 7.75391 0.0716152 7.32422 0.078125C6.89453 0.0846348 6.41276 0.100912 5.87891 0.126953C5.34505 0.152994 4.88607 0.205078 4.50195 0.283203C4.11784 0.361328 3.76953 0.465494 3.45703 0.595703C3.11849 0.725912 2.80599 0.882162 2.51953 1.06445C2.23307 1.24674 1.95312 1.47461 1.67969 1.74805C1.40625 2.02148 1.17839 2.30143 0.996094 2.58789C0.813802 2.87435 0.657552 3.18685 0.527344 3.52539C0.397135 3.83789 0.292969 4.1862 0.214844 4.57031C0.136719 4.95443 0.0846354 5.41341 0.0585938 5.94727C0.0325521 6.48112 0.016276 6.96289 0.00976562 7.39258C0.00325521 7.82227 0 8.71419 0 10.0684C0 11.4225 0.00325521 12.3145 0.00976562 12.7441C0.016276 13.1738 0.0325521 13.6556 0.0585938 14.1895C0.0846354 14.7233 0.136719 15.1823 0.214844 15.5664C0.292969 15.9505 0.397135 16.2988 0.527344 16.6113C0.657552 16.9499 0.813802 17.2624 0.996094 17.5488C1.17839 17.8353 1.40625 18.1152 1.67969 18.3887C1.95312 18.6621 2.23307 18.89 2.51953 19.0723C2.80599 19.2546 3.11849 19.4108 3.45703 19.541C3.76953 19.6582 4.11784 19.7591 4.50195 19.8438C4.88607 19.9284 5.34505 19.9837 5.87891 20.0098C6.41276 20.0358 6.89453 20.0521 7.32422 20.0586C7.75391 20.0651 8.64583 20.0684 10 20.0684C11.3542 20.0684 12.2461 20.0651 12.6758 20.0586C13.1055 20.0521 13.5872 20.0358 14.1211 20.0098C14.6549 19.9837 15.1139 19.9284 15.498 19.8438C15.8822 19.7591 16.2305 19.6582 16.543 19.541C16.8685 19.4108 17.1745 19.2546 17.4609 19.0723C17.7474 18.89 18.0339 18.6621 18.3203 18.3887C18.5938 18.1152 18.8216 17.8353 19.0039 17.5488C19.1862 17.2624 19.3424 16.9499 19.4727 16.6113C19.5898 16.2988 19.6908 15.9505 19.7754 15.5664C19.86 15.1823 19.9089 14.7233 19.9219 14.1895C19.9479 13.6556 19.9642 13.1738 19.9707 12.7441C19.9772 12.3145 19.9805 11.4225 19.9805 10.0684C19.9805 8.71419 19.9772 7.82227 19.9707 7.39258C19.9642 6.96289 19.9479 6.48112 19.9219 5.94727C19.9089 5.41341 19.86 4.95443 19.7754 4.57031C19.6908 4.1862 19.5898 3.83789 19.4727 3.52539C19.3424 3.19987 19.1862 2.89062 19.0039 2.59766C18.8216 2.30469 18.5938 2.02148 18.3203 1.74805C18.0469 1.47461 17.7669 1.24674 17.4805 1.06445C17.194 0.882162 16.8815 0.725912 16.543 0.595703C16.2305 0.478516 15.8822 0.377604 15.498 0.292969C15.1139 0.208334 14.6549 0.152994 14.1211 0.126953C13.5872 0.100912 13.1055 0.0846348 12.6758 0.078125C12.2461 0.0716152 11.3542 0.0683594 10 0.0683594ZM10 4.93164C9.29688 4.93164 8.63281 5.06836 8.00781 5.3418C7.38281 5.60221 6.83594 5.9668 6.36719 6.43555C5.89844 6.9043 5.53385 7.45117 5.27344 8.07617C5 8.70117 4.86328 9.36523 4.86328 10.0684C4.86328 10.7715 5 11.4355 5.27344 12.0605C5.53385 12.6855 5.89844 13.2324 6.36719 13.7012C6.83594 14.1699 7.38281 14.5345 8.00781 14.7949C8.63281 15.0684 9.29688 15.2051 10 15.2051C10.7031 15.2051 11.3672 15.0684 11.9922 14.7949C12.6172 14.5345 13.1641 14.1699 13.6328 13.7012C14.1016 13.2324 14.4661 12.6855 14.7266 12.0605C15 11.4355 15.1367 10.7715 15.1367 10.0684C15.1367 9.36523 15 8.70117 14.7266 8.07617C14.4661 7.45117 14.1016 6.9043 13.6328 6.43555C13.1641 5.9668 12.6172 5.60221 11.9922 5.3418C11.3672 5.06836 10.7031 4.93164 10 4.93164ZM10 13.4082C9.07552 13.4082 8.28776 13.0827 7.63672 12.4316C6.98568 11.7806 6.66016 10.9928 6.66016 10.0684C6.66016 9.14388 6.98568 8.35612 7.63672 7.70508C8.28776 7.05404 9.07552 6.72852 10 6.72852C10.9245 6.72852 11.7122 7.05404 12.3633 7.70508C13.0143 8.35612 13.3398 9.14388 13.3398 10.0684C13.3398 10.9928 13.0143 11.7806 12.3633 12.4316C11.7122 13.0827 10.9245 13.4082 10 13.4082ZM16.543 4.73633C16.543 5.06185 16.4258 5.3418 16.1914 5.57617C15.957 5.81055 15.6706 5.92773 15.332 5.92773C15.0065 5.92773 14.7266 5.81055 14.4922 5.57617C14.2578 5.3418 14.1406 5.06185 14.1406 4.73633C14.1406 4.39779 14.2578 4.11133 14.4922 3.87695C14.7266 3.64258 15.0065 3.52539 15.332 3.52539C15.6706 3.52539 15.957 3.64258 16.1914 3.87695C16.4258 4.11133 16.543 4.39779 16.543 4.73633Z" fill="white"/>
</g>
<defs>
<clipPath id="clip0_1_4837">
<rect width="20" height="20" fill="white" transform="matrix(1 0 0 -1 0 20.0684)"/>
</clipPath>
</defs>
</svg>
