<svg width="20" height="21" viewBox="0 0 20 21" fill="none" xmlns="http://www.w3.org/2000/svg">
<g clip-path="url(#clip0_1_4846)">
<path d="M10.0667 2.53489H10.2C11.4889 2.57934 12.7111 2.62378 13.8667 2.66823C15.9111 2.71267 17.2222 2.82378 17.8 3.00156C18.2444 3.09045 18.6222 3.30156 18.9333 3.6349C19.2444 3.96823 19.4556 4.34601 19.5667 4.76823C19.6778 5.19045 19.7778 5.77934 19.8667 6.53489L19.9333 7.06823C19.9778 7.91267 20 8.7349 20 9.5349V9.66823C20 10.5127 19.9556 11.3571 19.8667 12.2016V12.4682C19.7778 13.3127 19.6778 13.9571 19.5667 14.4016C19.4556 14.846 19.2444 15.2238 18.9333 15.5349C18.6222 15.846 18.2444 16.0682 17.8 16.2016C17.1778 16.3793 15.8 16.4905 13.6667 16.5349C12.4667 16.5793 11.2667 16.6016 10.0667 16.6016H9.93333C8.73333 16.6016 7.51111 16.5793 6.26667 16.5349H5.53333C3.84444 16.446 2.75556 16.3349 2.26667 16.2016C1.77778 16.0682 1.37778 15.846 1.06667 15.5349C0.755556 15.2238 0.533333 14.846 0.4 14.4016C0.266667 13.9571 0.177778 13.3127 0.133333 12.4682V12.2016C0.0444444 11.3571 0 10.5127 0 9.66823V9.5349C0 8.7349 0.0222222 7.97934 0.0666667 7.26823L0.133333 6.53489C0.222222 5.77934 0.322222 5.19045 0.433333 4.76823C0.544444 4.34601 0.755556 3.96823 1.06667 3.6349C1.37778 3.30156 1.75556 3.09045 2.2 3.00156C2.73333 2.86823 3.84444 2.75712 5.53333 2.66823L6.26667 2.60156C7.46667 2.60156 8.64444 2.57934 9.8 2.53489H10.0667ZM8 6.60156V12.6016L13.2 9.60156L8 6.60156Z" fill="white"/>
</g>
<defs>
<clipPath id="clip0_1_4846">
<rect width="20" height="20" fill="white" transform="matrix(1 0 0 -1 0 20.0684)"/>
</clipPath>
</defs>
</svg>
