<svg width="20" height="21" viewBox="0 0 20 21" fill="none" xmlns="http://www.w3.org/2000/svg">
<path d="M7.5 7.56836H10.957V9.3457H11.0156C11.25 8.91602 11.6569 8.51237 12.2363 8.13477C12.8158 7.75716 13.5417 7.56836 14.4141 7.56836C15.3385 7.56836 16.0807 7.70508 16.6406 7.97852C17.2005 8.23893 17.6367 8.60352 17.9492 9.07227C18.2617 9.54102 18.4766 10.0944 18.5938 10.7324C18.6979 11.3704 18.75 12.0605 18.75 12.8027V18.8184H15.1367V13.4863C15.1367 12.8483 15.0553 12.2038 14.8926 11.5527C14.7298 10.9017 14.1862 10.5762 13.2617 10.5762C12.3242 10.5762 11.7318 10.8659 11.4844 11.4453C11.237 12.0247 11.1133 12.6725 11.1133 13.3887V18.8184H7.5V7.56836ZM1.25 7.56836H5V18.8184H1.25V7.56836ZM5 4.44336C5 4.96419 4.81771 5.4069 4.45312 5.77148C4.08854 6.13607 3.64583 6.31836 3.125 6.31836C2.60417 6.31836 2.16146 6.13607 1.79688 5.77148C1.43229 5.4069 1.25 4.96419 1.25 4.44336C1.25 3.92253 1.43229 3.47982 1.79688 3.11523C2.16146 2.75065 2.60417 2.56836 3.125 2.56836C3.64583 2.56836 4.08854 2.75065 4.45312 3.11523C4.81771 3.47982 5 3.92253 5 4.44336Z" fill="white"/>
</svg>
