<svg width="20" height="21" viewBox="0 0 20 21" fill="none" xmlns="http://www.w3.org/2000/svg">
<g clip-path="url(#clip0_1_4840)">
<path d="M11.875 3.81836H15V0.0683594H11.875C11.276 0.0683594 10.7096 0.185547 10.1758 0.419922C9.64193 0.641275 9.17643 0.950521 8.7793 1.34766C8.38216 1.74479 8.07292 2.21029 7.85156 2.74414C7.61719 3.27799 7.5 3.8444 7.5 4.44336V6.31836H5V10.0684H7.5V20.0684H11.25V10.0684H14.375L15 6.31836H11.25V4.44336C11.25 4.27409 11.3118 4.1276 11.4355 4.00391C11.5592 3.88021 11.7057 3.81836 11.875 3.81836Z" fill="white"/>
</g>
<defs>
<clipPath id="clip0_1_4840">
<rect width="20" height="20" fill="white" transform="matrix(1 0 0 -1 0 20.0684)"/>
</clipPath>
</defs>
</svg>
